<svg id="SvgjsSvg1001" width="288" height="288" xmlns="http://www.w3.org/2000/svg" version="1.1" xmlns:xlink="http://www.w3.org/1999/xlink" xmlns:svgjs="http://svgjs.com/svgjs"><defs id="SvgjsDefs1002"></defs><g id="SvgjsG1008"><svg xmlns="http://www.w3.org/2000/svg" aria-label="Docker" viewBox="0 0 512 512" width="288" height="288"><rect width="512" height="512" fill="#d8dad8" rx="15%" class="svgShape colorffffff-0 selectable"></rect><path stroke="#066da5" stroke-width="38" d="M296 226h42m-92 0h42m-91 0h42m-91 0h41m-91 0h42m8-46h41m8 0h42m7 0h42m-42-46h42" class="svgStroke colorStroke066da5-1 selectable"></path><path fill="#066da5" d="m472 228s-18-17-55-11c-4-29-35-46-35-46s-29 35-8 74c-6 3-16 7-31 7H68c-5 19-5 145 133 145 99 0 173-46 208-130 52 4 63-39 63-39" class="svgShape color066da5-2 selectable"></path></svg></g></svg>